<?xml version="1.0" encoding="UTF-8" standalone="no"?>
<!-- Svg Vector Icons : http://www.onlinewebfonts.com/icon -->

<svg
   version="1.1"
   x="0px"
   y="0px"
   viewBox="0 0 256 256"
   enable-background="new 0 0 256 256"
   xml:space="preserve"
   id="svg49"
   sodipodi:docname="washing_machine.svg"
   inkscape:version="1.4.2 (ebf0e940, 2025-05-08)"
   xmlns:inkscape="http://www.inkscape.org/namespaces/inkscape"
   xmlns:sodipodi="http://sodipodi.sourceforge.net/DTD/sodipodi-0.dtd"
   xmlns="http://www.w3.org/2000/svg"
   xmlns:svg="http://www.w3.org/2000/svg"><defs
   id="defs49" /><sodipodi:namedview
   id="namedview49"
   pagecolor="#ffffff"
   bordercolor="#666666"
   borderopacity="1.0"
   inkscape:showpageshadow="2"
   inkscape:pageopacity="0.0"
   inkscape:pagecheckerboard="0"
   inkscape:deskcolor="#d1d1d1"
   inkscape:zoom="4.3355806"
   inkscape:cx="98.026087"
   inkscape:cy="123.51287"
   inkscape:window-width="1960"
   inkscape:window-height="1186"
   inkscape:window-x="0"
   inkscape:window-y="0"
   inkscape:window-maximized="0"
   inkscape:current-layer="svg49" />
<metadata
   id="metadata1"> Svg Vector Icons : http://www.onlinewebfonts.com/icon </metadata>
<g
   id="g49"> <path
   fill="#3f454a"
   d="M200.8,243.9c-1,0-1.9-0.7-2-1.7l-0.8-4.8c-0.2-1.1,0.6-2.2,1.7-2.3c0.1,0,0.2,0,0.3,0h11.2 c1.1,0,2.1,0.9,2.1,2.1c0,0.1,0,0.2,0,0.3l-0.8,4.8c-0.2,1-1,1.7-2,1.7H200.8z"
   id="path1" /> <path
   fill="#080a1b"
   d="M211.2,237l-0.8,4.8h-9.7L200,237H211.2 M211.2,232.9H200c-2.3,0-4.1,1.8-4.1,4.1c0,0.2,0,0.4,0,0.6 l0.8,4.8c0.3,2,2,3.5,4.1,3.5h9.7c2,0,3.7-1.5,4.1-3.5l0.8-4.8c0.4-2.2-1.2-4.3-3.4-4.7C211.6,233,211.4,232.9,211.2,232.9 L211.2,232.9z"
   id="path2" /> <path
   fill="#555d5d"
   d="M201.6,241.4l-0.7-4.4H200l0.8,4.8h9.7l0.1-0.5H201.6z"
   id="path3" /> <path
   fill="#3f454a"
   d="M45.6,243.9c-1,0-1.9-0.7-2-1.7l-0.8-4.8c-0.2-1.1,0.6-2.2,1.7-2.3c0.1,0,0.2,0,0.3,0H56 c1.1,0,2.1,0.9,2.1,2.1c0,0.1,0,0.2,0,0.3l-0.8,4.8c-0.2,1-1,1.7-2,1.7H45.6z"
   id="path4" /> <path
   fill="#080a1b"
   d="M56,237l-0.8,4.8h-9.7l-0.8-4.8H56 M56,232.9H44.8c-2.3,0-4.1,1.8-4.1,4.1c0,0.2,0,0.4,0,0.6l0.8,4.8 c0.3,2,2,3.5,4.1,3.5h9.7c2,0,3.7-1.5,4.1-3.5l0.8-4.8c0.4-2.2-1.2-4.3-3.4-4.7C56.4,233,56.2,232.9,56,232.9L56,232.9z"
   id="path5" /> <path
   fill="#555d5d"
   d="M54.5,237l-0.7,4.4h-8.3l0.1,0.4h9.7L56,237H54.5z"
   id="path6" /> <path
   fill="#f5f8f7"
   d="M34.5,12.1h186.9v223.2H34.5V12.1z"
   id="path7" /> <path
   fill="#080a1b"
   d="M219.4,14.1v219.1H36.6V14.1H219.4 M219.4,10H36.6c-2.3,0-4.1,1.8-4.1,4.1v219.1c0,2.3,1.8,4.1,4.1,4.1 h182.8c2.3,0,4.1-1.8,4.1-4.1V14.1C223.5,11.8,221.7,10,219.4,10z"
   id="path8" /> <path
   fill="#ffffff"
   d="M36.6,14.1H43v219.1h-6.4V14.1z"
   id="path9" /> <path
   fill="#dcdedd"
   d="M216.7,14.1h2.7v219.1h-2.7V14.1z"
   id="path10" /> <path
   fill="#dcdedd"
   d="M36.6,230.7h182.8v2.5H36.6V230.7z M89.5,14.1h0.6v30.2h-0.6V14.1z M36.6,46.2h182.8v13.9H36.6V46.2z  M219.4,61.9v0.6H36.6v-0.6H219.4z"
   id="path11" /> <path
   fill="#dcdedd"
   d="M219.4,43.7v0.6H36.6v-0.6H219.4z"
   id="path12" /> <path
   fill="#dcdedd"
   d="M64.3,137c0,35.2,28.5,63.7,63.7,63.7s63.7-28.5,63.7-63.7c0-35.2-28.5-63.7-63.7-63.7S64.3,101.9,64.3,137 z"
   id="path13" /> <path
   fill="#ffffff"
   d="M64.3,133.6c0,35.2,28.5,63.7,63.7,63.7s63.7-28.5,63.7-63.7c0-35.2-28.5-63.7-63.7-63.7 S64.3,98.4,64.3,133.6z"
   id="path14" /> <path
   fill="#f5f8f7"
   d="M74.3,133.6c0,29.6,24,53.7,53.7,53.7c29.6,0,53.7-24,53.7-53.7c0-29.6-24-53.7-53.7-53.7 C98.4,79.9,74.3,104,74.3,133.6L74.3,133.6z"
   id="path15" /> <path
   fill="#dcdedd"
   d="M128,82.4c29.2,0,53,23.3,53.7,52.4v-1.3c0-29.6-24-53.7-53.7-53.7c-29.6,0-53.7,24-53.7,53.7v1.3 C75,105.7,98.8,82.4,128,82.4z"
   id="path16" /> <path
   fill="#131313"
   d="M84.5,133.6c0,24,19.5,43.5,43.5,43.5c24,0,43.5-19.5,43.5-43.5c0-24-19.5-43.5-43.5-43.5 C104,90.1,84.5,109.6,84.5,133.6z"
   id="path17" /> <path
   fill="#131313"
   d="M84.5,133.6c0,24,19.5,43.5,43.5,43.5c24,0,43.5-19.5,43.5-43.5c0-24-19.5-43.5-43.5-43.5 C104,90.1,84.5,109.6,84.5,133.6z"
   id="path18" /> <path
   fill="#1d1e1e"
   d="M128,172.8c-21.7,0-39.3-17.6-39.3-39.3c0-21.7,17.6-39.3,39.3-39.3c21.7,0,39.3,17.6,39.3,39.3l0,0 C167.2,155.3,149.7,172.8,128,172.8z M128,96.4c-20.5,0-37.2,16.7-37.2,37.2c0,20.5,16.7,37.2,37.2,37.2 c20.5,0,37.2-16.7,37.2-37.2C165.2,113.1,148.5,96.4,128,96.4z"
   id="path19" />   <path
   fill="#040000"
   d="M128,177.1c-23.5,0-42.7-18.6-43.5-42.1c0,0.5,0,0.9,0,1.4c0,24,19.5,43.5,43.5,43.5 c24,0,43.5-19.5,43.5-43.5c0-0.5,0-0.9,0-1.4C170.7,158.4,151.5,177.1,128,177.1z"
   id="path22" />   <path
   fill="#555d5d"
   d="M46.4,31.3h34.2v7.5H46.4V31.3z"
   id="path25" /> <path
   fill="#606868"
   d="M46.4,38h34.2v0.9H46.4V38z"
   id="path26" /> <path
   fill="#3f454a"
   d="M46.4,31.3h34.2v2.2H46.4V31.3z"
   id="path27" /> <path
   fill="#dcdedd"
   d="M46.4,18.4h21.2v2.4H46.4V18.4z M46.4,23.2h9.7v2.4h-9.7V23.2z M118.5,39.2c-5.5,0-10-4.5-10-10 c0-5.5,4.5-10,10-10c5.5,0,10,4.5,10,10C128.5,34.7,124,39.2,118.5,39.2z M118.5,20.3c-4.9,0-9,4-9,9s4,9,9,9c4.9,0,9-4,9-9 C127.5,24.3,123.5,20.3,118.5,20.3z"
   id="path28" /> <path
   fill="#dcdedd"
   d="M112,29.9c0,3.6,2.9,6.5,6.5,6.5c3.6,0,6.5-2.9,6.5-6.5s-2.9-6.5-6.5-6.5C114.9,23.4,112,26.3,112,29.9z"
   id="path29" /> <path
   fill="#ffffff"
   d="M112,29.2c0,3.6,2.9,6.5,6.5,6.5c3.6,0,6.5-2.9,6.5-6.5c0-3.6-2.9-6.5-6.5-6.5 C114.9,22.7,112,25.6,112,29.2z"
   id="path30" /> <path
   fill="#e67f89"
   d="M121.9,29.2c0,0.5,0.4,0.9,0.9,0.9s0.9-0.4,0.9-0.9c0,0,0,0,0,0c0-0.5-0.4-0.9-0.9-0.9 C122.3,28.3,121.9,28.7,121.9,29.2C121.9,29.2,121.9,29.2,121.9,29.2z"
   id="path31" /> <path
   fill="#2c2e2f"
   d="M168.4,17.3h39.9v22.8h-39.9V17.3z"
   id="path32" /> <path
   fill="#131313"
   d="M170.8,19.6h18.3v14.3h-18.3V19.6z"
   id="path33" /> <path
   fill="#f5f8f7"
   d="M168.4,35.7h39.9v0.6h-39.9V35.7z"
   id="path34" /> <path
   fill="#131313"
   d="M191.7,19.6h2v2h-2V19.6z"
   id="path35" /> <path
   fill="#131313"
   d="M195.6,19.6h2v2h-2V19.6z"
   id="path36" /> <path
   fill="#131313"
   d="M199.4,19.6h2v2h-2V19.6z"
   id="path37" /> <path
   fill="#131313"
   d="M203.3,19.6h2v2h-2V19.6z"
   id="path38" /> <path
   fill="#131313"
   d="M191.7,23.6h2v2h-2V23.6z"
   id="path39" /> <path
   fill="#131313"
   d="M195.6,23.6h2v2h-2V23.6z"
   id="path40" /> <path
   fill="#131313"
   d="M199.4,23.6h2v2h-2V23.6z"
   id="path41" /> <path
   fill="#131313"
   d="M203.3,23.6h2v2h-2V23.6z"
   id="path42" /> <path
   fill="#131313"
   d="M191.7,27.6h2v2h-2V27.6z"
   id="path43" /> <path
   fill="#131313"
   d="M195.6,27.6h2v2h-2V27.6z"
   id="path44" /> <path
   fill="#131313"
   d="M199.4,27.6h2v2h-2V27.6z"
   id="path45" /> <path
   fill="#131313"
   d="M203.3,27.6h2v2h-2V27.6z"
   id="path46" /> <path
   fill="#131313"
   d="M191.7,32.1h13.6v1.7h-13.6V32.1z"
   id="path47" /> <path
   fill="#dcdedd"
   d="M214,228.4h-35.6v-23.3H214V228.4z M179.1,227.7h34.2v-21.9h-34.2V227.7z"
   id="path48" /> <path
   fill="#dcdedd"
   d="M192.7,207.8h7.2v0.9h-7.2V207.8z"
   id="path49" /></g>
</svg>
